<svg width="1293" height="468" xmlns="http://www.w3.org/2000/svg" xmlns:xlink="http://www.w3.org/1999/xlink" xml:space="preserve" overflow="hidden"><defs><clipPath id="clip0"><rect x="2071" y="948" width="1293" height="468"/></clipPath><clipPath id="clip1"><rect x="2073" y="1051" width="317" height="317"/></clipPath><clipPath id="clip2"><rect x="2073" y="1051" width="317" height="317"/></clipPath><clipPath id="clip3"><rect x="2073" y="1051" width="317" height="317"/></clipPath></defs><g clip-path="url(#clip0)" transform="translate(-2071 -948)"><g clip-path="url(#clip1)"><g clip-path="url(#clip2)"><g clip-path="url(#clip3)"><path d="M-0.541238 176.985C-0.541238 169.407-0.541238 161.83-0.541238 154.253 1.44576 150.101 3.61071 145.952 5.95361 141.804 3.8707 135.686 1.70575 129.732-0.541238 123.943-0.541238 118.891-0.541238 113.841-0.541238 108.789 4.48209 89.3456 17.111 78.8817 37.3454 77.397 38.2024 56.154 49.0271 43.3448 69.8196 38.9691 75.232 38.2474 80.6444 38.2474 86.0568 38.9691 90.0027 40.2312 93.9718 40.9528 97.964 41.1341 102.13 34.6103 106.821 28.4763 112.036 22.732 122.708 15.011 134.616 12.4853 147.758 15.1547 152.962 16.8528 157.653 19.3786 161.83 22.732 158.349 29.1057 154.019 34.879 148.84 40.0516 138.47 44.8316 127.645 48.079 116.366 49.7939 122.313 55.7458 129.349 59.8953 137.474 62.2423 134.555 74.6439 135.998 86.5511 141.804 97.964 143.969 100.129 146.134 102.294 148.299 104.459 142.495 63.5378 159.635 38.4604 199.717 29.2268 243.255 24.4727 269.955 43.416 279.82 86.0568 296.954 90.8928 305.975 102.259 306.882 120.155 305.802 128.982 303.457 137.461 299.846 145.593 277.684 128.848 260.726 107.92 248.969 82.8093 247.583 96.1368 249.927 108.766 256.005 120.696 240.936 120.619 225.782 120.799 210.541 121.237 206.886 121.726 203.277 122.447 199.717 123.402 217.891 126.232 235.573 130.923 252.758 137.474 268.757 143.563 281.205 153.847 290.103 168.325 293.711 177.707 293.711 187.087 290.103 196.469 279.498 214.423 267.05 231.021 252.758 246.263 254.889 258.469 257.416 270.556 260.335 282.526 243.418 282.275 230.608 274.878 221.907 260.335 218.829 252.703 215.04 245.487 210.541 238.686 203.359 236.587 196.142 234.602 188.892 232.732 187.027 232.166 185.584 231.084 184.562 229.485 190.844 222.833 196.797 215.797 202.423 208.376 215.864 191.28 233.364 183.883 254.923 186.186 249.397 179.037 242 175.61 232.732 175.902 220.108 177.253 208.742 181.764 198.634 189.433 186.005 199.897 173.377 210.361 160.748 220.825 142.012 232.977 123.25 232.977 104.459 220.825 90.0956 199.785 91.8996 180.3 109.871 162.371 113.293 160.842 116.54 159.037 119.613 156.959 107.934 154.808 96.3877 155.529 84.9743 159.124 83.4255 159.627 82.1626 160.53 81.1856 161.83 65.5827 152.435 48.8044 149.369 30.8505 152.629 42.6969 155.61 53.5217 160.661 63.3248 167.784 74.4877 180.141 78.0959 194.394 74.1495 210.541 54.9981 219.513 37.3176 217.168 21.1083 203.505 15.5154 197.912 9.92269 192.32 4.3299 186.727 2.38051 183.548 0.756797 180.3-0.541238 176.985Z" fill="#518AC5" fill-rule="evenodd" fill-opacity="0.999" transform="matrix(1.00317 0 0 1 2073 1052)"/></g></g></g><text fill="#F2F2F2" fill-opacity="1" font-family="Segoe UI,Segoe UI_MSFontService,sans-serif" font-style="normal" font-variant="normal" font-weight="400" font-stretch="normal" font-size="220" text-anchor="start" direction="ltr" writing-mode="lr-tb" unicode-bidi="normal" text-decoration="none" transform="matrix(1 0 0 1 2414.06 1230)">psycho<tspan fill="#5189C5" fill-opacity="1" font-family="Segoe UI,Segoe UI_MSFontService,sans-serif" font-style="normal" font-variant="normal" font-weight="400" font-stretch="normal" font-size="220" text-anchor="start" direction="ltr" writing-mode="lr-tb" unicode-bidi="normal" text-decoration="none" x="684.063" y="0">s</tspan></text></g></svg>