<svg width="1293" height="467" xmlns="http://www.w3.org/2000/svg" xmlns:xlink="http://www.w3.org/1999/xlink" xml:space="preserve" overflow="hidden"><defs><clipPath id="clip0"><rect x="1984" y="183" width="1293" height="467"/></clipPath><clipPath id="clip1"><rect x="1987" y="288" width="317" height="315"/></clipPath><clipPath id="clip2"><rect x="1987" y="288" width="317" height="315"/></clipPath><clipPath id="clip3"><rect x="1987" y="288" width="317" height="315"/></clipPath></defs><g clip-path="url(#clip0)" transform="translate(-1984 -183)"><g clip-path="url(#clip1)"><g clip-path="url(#clip2)"><g clip-path="url(#clip3)"><path d="M-0.541237 176.984C-0.541237 169.407-0.541237 161.83-0.541237 154.253 1.44576 150.101 3.61071 145.952 5.95361 141.804 3.8707 135.686 1.70575 129.732-0.541237 123.943-0.541237 118.891-0.541237 113.841-0.541237 108.789 4.48208 89.3455 17.111 78.8816 37.3453 77.3969 38.2023 56.154 49.0271 43.3447 69.8196 38.9691 75.2319 38.2474 80.6443 38.2474 86.0567 38.9691 90.0026 40.2311 93.9717 40.9528 97.9639 41.134 102.13 34.6103 106.82 28.4763 112.036 22.7319 122.708 15.011 134.615 12.4853 147.758 15.1546 152.962 16.8528 157.653 19.3786 161.83 22.7319 158.349 29.1057 154.019 34.8789 148.84 40.0515 138.47 44.8315 127.645 48.0789 116.366 49.7938 122.313 55.7458 129.349 59.8952 137.474 62.2422 134.555 74.6438 135.998 86.551 141.804 97.9639 143.969 100.129 146.134 102.294 148.299 104.459 142.495 63.5377 159.635 38.4604 199.716 29.2268 243.255 24.4727 269.955 43.416 279.819 86.0567 296.954 90.8927 305.974 102.259 306.881 120.155 305.802 128.982 303.456 137.461 299.845 145.593 277.684 128.848 260.726 107.92 248.969 82.8092 247.582 96.1367 249.927 108.766 256.005 120.696 240.936 120.619 225.781 120.799 210.541 121.237 206.886 121.726 203.277 122.447 199.716 123.402 217.891 126.232 235.572 130.923 252.758 137.474 268.757 143.563 281.205 153.847 290.103 168.325 293.711 177.706 293.711 187.087 290.103 196.469 279.498 214.423 267.05 231.02 252.758 246.263 254.889 258.469 257.415 270.556 260.335 282.526 243.418 282.275 230.608 274.878 221.907 260.335 218.829 252.702 215.04 245.487 210.541 238.685 203.359 236.587 196.142 234.601 188.892 232.732 187.027 232.166 185.584 231.083 184.562 229.484 190.843 222.833 196.797 215.797 202.423 208.376 215.864 191.28 233.364 183.883 254.923 186.185 249.397 179.037 242 175.61 232.732 175.902 220.108 177.253 208.742 181.764 198.634 189.433 186.005 199.897 173.377 210.36 160.747 220.825 142.012 232.977 123.249 232.977 104.459 220.825 90.0955 199.785 91.8995 180.3 109.871 162.371 113.293 160.842 116.54 159.037 119.613 156.959 107.934 154.808 96.3876 155.529 84.9742 159.124 83.4254 159.627 82.1625 160.53 81.1855 161.83 65.5826 152.435 48.8043 149.368 30.8505 152.629 42.6969 155.61 53.5216 160.661 63.3247 167.783 74.4876 180.141 78.0958 194.394 74.1495 210.541 54.998 219.513 37.3175 217.168 21.1082 203.505 15.5154 197.912 9.92268 192.32 4.3299 186.727 2.38051 183.548 0.756796 180.3-0.541237 176.984Z" fill="#518AC5" fill-rule="evenodd" fill-opacity="0.999" transform="matrix(1 0 0 1 1988 288)"/></g></g></g><text fill="#F2F2F2" fill-opacity="1" font-family="Segoe UI,Segoe UI_MSFontService,sans-serif" font-style="normal" font-variant="normal" font-weight="400" font-stretch="normal" font-size="220" text-anchor="start" direction="ltr" writing-mode="lr-tb" unicode-bidi="normal" text-decoration="none" transform="matrix(1 0 0 1 2329.02 466)">psycho<tspan fill="#5189C5" fill-opacity="1" font-family="Segoe UI,Segoe UI_MSFontService,sans-serif" font-style="normal" font-variant="normal" font-weight="400" font-stretch="normal" font-size="220" text-anchor="start" direction="ltr" writing-mode="lr-tb" unicode-bidi="normal" text-decoration="none" x="684.063" y="0">s</tspan><tspan fill="#D9D9D9" fill-opacity="1" font-family="Arial,Arial_MSFontService,sans-serif" font-style="normal" font-variant="normal" font-weight="400" font-stretch="normal" font-size="50" text-anchor="start" direction="ltr" writing-mode="lr-tb" unicode-bidi="normal" text-decoration="none" x="-17.1875" y="105">create simple experiments in Python</tspan></text></g></svg>