<svg width="86" height="86" xmlns="http://www.w3.org/2000/svg" xmlns:xlink="http://www.w3.org/1999/xlink" xml:space="preserve" overflow="hidden"><defs><clipPath id="clip0"><rect x="460" y="240" width="86" height="86"/></clipPath><clipPath id="clip1"><rect x="460" y="241" width="86" height="85"/></clipPath><clipPath id="clip2"><rect x="460" y="241" width="86" height="85"/></clipPath><clipPath id="clip3"><rect x="460" y="241" width="86" height="85"/></clipPath></defs><g clip-path="url(#clip0)" transform="translate(-460 -240)"><g clip-path="url(#clip1)"><g clip-path="url(#clip2)"><g clip-path="url(#clip3)"><path d="M-0.146048 47.7577C-0.146048 45.7131-0.146048 43.6684-0.146048 41.6237 0.390127 40.5035 0.974319 39.3839 1.60653 38.2646 1.04447 36.6137 0.460282 35.0071-0.146048 33.445-0.146048 32.0818-0.146048 30.7189-0.146048 29.3557 1.20945 24.1091 4.61725 21.2855 10.0773 20.8849 10.3086 15.1527 13.2295 11.6962 18.8402 10.5155 20.3007 10.3207 21.7612 10.3207 23.2216 10.5155 24.2864 10.856 25.3575 11.0508 26.4347 11.0997 27.5588 9.33928 28.8246 7.68409 30.232 6.13402 33.1117 4.05059 36.3248 3.36904 39.8711 4.08935 41.2755 4.54759 42.5412 5.22914 43.6684 6.13402 42.729 7.85391 41.5606 9.41178 40.1632 10.8076 37.3649 12.0974 34.444 12.9737 31.4003 13.4364 33.0051 15.0425 34.9037 16.1622 37.0962 16.7955 36.3084 20.142 36.6978 23.3551 38.2646 26.4347 38.8488 27.0189 39.433 27.6031 40.0172 28.1873 38.451 17.1451 43.076 10.3782 53.8918 7.8866 65.6402 6.60374 72.845 11.7154 75.5069 23.2216 80.1305 24.5266 82.5645 27.5936 82.8093 32.4227 82.5181 34.8047 81.8851 37.0927 80.9107 39.2869 74.9306 34.7685 70.3546 29.1213 67.1821 22.3454 66.808 25.9416 67.4406 29.3495 69.0808 32.5687 65.0145 32.548 60.9251 32.5965 56.8127 32.7148 55.8263 32.8468 54.8525 33.0413 53.8918 33.299 58.796 34.0625 63.5671 35.3285 68.2045 37.0962 72.5217 38.7393 75.8808 41.5142 78.2818 45.421 79.2553 47.9526 79.2553 50.4839 78.2818 53.0155 75.4201 57.8602 72.061 62.3389 68.2045 66.4519 68.7796 69.7456 69.4614 73.0071 70.2491 76.2371 65.6843 76.1693 62.2276 74.1735 59.8797 70.2491 59.049 68.1896 58.0267 66.2425 56.8127 64.4072 54.8747 63.8408 52.9272 63.3051 50.9708 62.8007 50.4675 62.6479 50.0781 62.3558 49.8024 61.9244 51.4974 60.1295 53.104 58.2308 54.622 56.2285 58.249 51.6152 62.9713 49.6193 68.7887 50.2406 67.2975 48.3115 65.3016 47.3868 62.8007 47.4656 59.3943 47.8302 56.3273 49.0473 53.5997 51.1168 50.1918 53.9405 46.7842 56.7639 43.3763 59.5876 38.3207 62.8667 33.2578 62.8667 28.1873 59.5876 24.3115 53.9102 24.7983 48.6524 29.6478 43.8144 30.5711 43.4017 31.4474 42.9148 32.2766 42.354 29.1251 41.7736 26.0094 41.9681 22.9296 42.9381 22.5116 43.074 22.1708 43.3176 21.9072 43.6684 17.6969 41.1333 13.1694 40.3058 8.32474 41.1856 11.5214 41.99 14.4423 43.3529 17.0876 45.2749 20.0998 48.6095 21.0735 52.4555 20.0086 56.8127 14.8407 59.2336 10.0698 58.6009 5.69588 54.9141 4.1867 53.4048 2.67755 51.8959 1.16838 50.3866 0.642361 49.5287 0.204215 48.6524-0.146048 47.7577Z" fill="#518AC5" fill-rule="evenodd" fill-opacity="0.999" transform="matrix(1.01176 0 0 1 460 241)"/></g></g></g></g></svg>